<svg width="84" height="83" viewBox="0 0 84 83" fill="none" xmlns="http://www.w3.org/2000/svg">
<g opacity="0.5" filter="url(#filter0_f_14_189)">
<path d="M18.5719 64.4752C20.2887 66.1598 22.5324 67 24.7849 67C27.0329 67 29.2766 66.1598 30.9934 64.4795L42.0011 53.6821L53.0088 64.4795C54.7256 66.1598 56.9693 67 59.2173 67C61.4654 67 63.7135 66.1598 65.4303 64.4708C68.8595 61.1058 68.8551 55.6511 65.4259 52.2861L54.427 41.5016L65.4259 30.7128C68.8551 27.3478 68.8595 21.8888 65.4303 18.5238C62.0011 15.1587 56.4424 15.1631 53.0132 18.5195L42.0011 29.3169L30.9934 18.5238C27.5642 15.1587 22.0055 15.1587 18.5719 18.5238C15.1427 21.8888 15.1427 27.3478 18.5719 30.7085L29.5708 41.4973L18.5719 52.2861C15.1427 55.6511 15.1427 61.1058 18.5719 64.4752Z" fill="#0D47A1" fill-opacity="0.5"/>
</g>
<path d="M18.5719 48.4752C20.2887 50.1598 22.5324 51 24.7849 51C27.0329 51 29.2766 50.1598 30.9934 48.4795L42.0011 37.6821L53.0088 48.4795C54.7256 50.1598 56.9693 51 59.2173 51C61.4654 51 63.7135 50.1598 65.4303 48.4708C68.8595 45.1058 68.8551 39.6511 65.4259 36.2861L54.427 25.5016L65.4259 14.7128C68.8551 11.3478 68.8595 5.8888 65.4303 2.52377C62.0011 -0.841257 56.4424 -0.836949 53.0132 2.51946L42.0011 13.3169L30.9934 2.52377C27.5642 -0.841257 22.0055 -0.841257 18.5719 2.52377C15.1427 5.8888 15.1427 11.3478 18.5719 14.7085L29.5708 25.4973L18.5719 36.2861C15.1427 39.6511 15.1427 45.1058 18.5719 48.4752Z" fill="#0D47A1"/>
<defs>
<filter id="filter0_f_14_189" x="0" y="0" width="84" height="83" filterUnits="userSpaceOnUse" color-interpolation-filters="sRGB">
<feFlood flood-opacity="0" result="BackgroundImageFix"/>
<feBlend mode="normal" in="SourceGraphic" in2="BackgroundImageFix" result="shape"/>
<feGaussianBlur stdDeviation="8" result="effect1_foregroundBlur_14_189"/>
</filter>
</defs>
</svg>
