<svg width="110" height="60" viewBox="0 0 110 60" fill="none" xmlns="http://www.w3.org/2000/svg">
<path d="M13 15.92C15.96 15.92 18.5467 16.5067 20.76 17.68C22.9733 18.8533 24.68 20.5067 25.88 22.64C27.1067 24.7467 27.72 27.1867 27.72 29.96C27.72 32.7067 27.1067 35.1467 25.88 37.28C24.68 39.4133 22.96 41.0667 20.72 42.24C18.5067 43.4133 15.9333 44 13 44H2.48V15.92H13ZM12.56 38.08C15.1467 38.08 17.16 37.3733 18.6 35.96C20.04 34.5467 20.76 32.5467 20.76 29.96C20.76 27.3733 20.04 25.36 18.6 23.92C17.16 22.48 15.1467 21.76 12.56 21.76H9.32V38.08H12.56ZM38.7825 25.4C39.5825 24.1733 40.5825 23.2133 41.7825 22.52C42.9825 21.8 44.3158 21.44 45.7825 21.44V28.68H43.9025C42.1958 28.68 40.9158 29.0533 40.0625 29.8C39.2092 30.52 38.7825 31.8 38.7825 33.64V44H31.9425V21.68H38.7825V25.4ZM48.0919 32.8C48.0919 30.5067 48.5185 28.4933 49.3719 26.76C50.2519 25.0267 51.4385 23.6933 52.9319 22.76C54.4252 21.8267 56.0919 21.36 57.9319 21.36C59.5052 21.36 60.8785 21.68 62.0519 22.32C63.2519 22.96 64.1719 23.8 64.8119 24.84V21.68H71.6519V44H64.8119V40.84C64.1452 41.88 63.2119 42.72 62.0119 43.36C60.8385 44 59.4652 44.32 57.8919 44.32C56.0785 44.32 54.4252 43.8533 52.9319 42.92C51.4385 41.96 50.2519 40.6133 49.3719 38.88C48.5185 37.12 48.0919 35.0933 48.0919 32.8ZM64.8119 32.84C64.8119 31.1333 64.3319 29.7867 63.3719 28.8C62.4385 27.8133 61.2919 27.32 59.9319 27.32C58.5719 27.32 57.4119 27.8133 56.4519 28.8C55.5185 29.76 55.0519 31.0933 55.0519 32.8C55.0519 34.5067 55.5185 35.8667 56.4519 36.88C57.4119 37.8667 58.5719 38.36 59.9319 38.36C61.2919 38.36 62.4385 37.8667 63.3719 36.88C64.3319 35.8933 64.8119 34.5467 64.8119 32.84ZM109.04 21.68L103 44H95.4403L91.9203 29.52L88.2803 44H80.7603L74.6803 21.68H81.5203L84.6803 37.64L88.4403 21.68H95.6803L99.4803 37.56L102.6 21.68H109.04Z" fill="white"/>
</svg>
