<svg width="218" height="62" viewBox="0 0 218 62" fill="none" xmlns="http://www.w3.org/2000/svg">
<rect width="218" height="62" rx="31" fill="#0D47A1"/>
<path d="M67.69 36.056H71.956V38H65.152V25.292H67.69V36.056ZM83.0245 32.636C83.0245 32.888 82.9945 33.176 82.9345 33.5H75.6265C75.6625 34.388 75.9025 35.042 76.3465 35.462C76.7905 35.882 77.3425 36.092 78.0025 36.092C78.5905 36.092 79.0765 35.948 79.4605 35.66C79.8565 35.372 80.1085 34.982 80.2165 34.49H82.8985C82.7665 35.186 82.4845 35.81 82.0525 36.362C81.6205 36.914 81.0625 37.346 80.3785 37.658C79.7065 37.97 78.9565 38.126 78.1285 38.126C77.1565 38.126 76.2925 37.922 75.5365 37.514C74.7805 37.094 74.1925 36.5 73.7725 35.732C73.3525 34.964 73.1425 34.058 73.1425 33.014C73.1425 31.97 73.3525 31.064 73.7725 30.296C74.1925 29.516 74.7805 28.922 75.5365 28.514C76.2925 28.106 77.1565 27.902 78.1285 27.902C79.1125 27.902 79.9705 28.106 80.7025 28.514C81.4465 28.922 82.0165 29.486 82.4125 30.206C82.8205 30.914 83.0245 31.724 83.0245 32.636ZM80.4685 32.384C80.5045 31.568 80.2885 30.95 79.8205 30.53C79.3645 30.11 78.8005 29.9 78.1285 29.9C77.4445 29.9 76.8685 30.11 76.4005 30.53C75.9325 30.95 75.6745 31.568 75.6265 32.384H80.4685ZM88.9121 27.902C89.7521 27.902 90.4721 28.1 91.0721 28.496C91.6721 28.892 92.0981 29.426 92.3501 30.098V28.028H94.8701V38H92.3501V35.912C92.0981 36.584 91.6721 37.124 91.0721 37.532C90.4721 37.928 89.7521 38.126 88.9121 38.126C88.0721 38.126 87.3161 37.922 86.6441 37.514C85.9721 37.106 85.4441 36.518 85.0601 35.75C84.6881 34.97 84.5021 34.058 84.5021 33.014C84.5021 31.97 84.6881 31.064 85.0601 30.296C85.4441 29.516 85.9721 28.922 86.6441 28.514C87.3161 28.106 88.0721 27.902 88.9121 27.902ZM89.7041 30.116C88.9121 30.116 88.2761 30.374 87.7961 30.89C87.3161 31.406 87.0761 32.114 87.0761 33.014C87.0761 33.914 87.3161 34.622 87.7961 35.138C88.2761 35.642 88.9121 35.894 89.7041 35.894C90.4721 35.894 91.1021 35.636 91.5941 35.12C92.0981 34.592 92.3501 33.89 92.3501 33.014C92.3501 32.126 92.0981 31.424 91.5941 30.908C91.1021 30.38 90.4721 30.116 89.7041 30.116ZM101.256 27.902C102.096 27.902 102.81 28.1 103.398 28.496C103.998 28.892 104.43 29.426 104.694 30.098V24.68H107.214V38H104.694V35.912C104.43 36.584 103.998 37.124 103.398 37.532C102.81 37.928 102.096 38.126 101.256 38.126C100.416 38.126 99.6602 37.922 98.9882 37.514C98.3162 37.106 97.7882 36.518 97.4042 35.75C97.0322 34.97 96.8462 34.058 96.8462 33.014C96.8462 31.97 97.0322 31.064 97.4042 30.296C97.7882 29.516 98.3162 28.922 98.9882 28.514C99.6602 28.106 100.416 27.902 101.256 27.902ZM102.048 30.116C101.256 30.116 100.62 30.374 100.14 30.89C99.6602 31.406 99.4202 32.114 99.4202 33.014C99.4202 33.914 99.6602 34.622 100.14 35.138C100.62 35.642 101.256 35.894 102.048 35.894C102.816 35.894 103.446 35.636 103.938 35.12C104.442 34.592 104.694 33.89 104.694 33.014C104.694 32.126 104.442 31.424 103.938 30.908C103.446 30.38 102.816 30.116 102.048 30.116ZM119.072 32.636C119.072 32.888 119.042 33.176 118.982 33.5H111.674C111.71 34.388 111.95 35.042 112.394 35.462C112.838 35.882 113.39 36.092 114.05 36.092C114.638 36.092 115.124 35.948 115.508 35.66C115.904 35.372 116.156 34.982 116.264 34.49H118.946C118.814 35.186 118.532 35.81 118.1 36.362C117.668 36.914 117.11 37.346 116.426 37.658C115.754 37.97 115.004 38.126 114.176 38.126C113.204 38.126 112.34 37.922 111.584 37.514C110.828 37.094 110.24 36.5 109.82 35.732C109.4 34.964 109.19 34.058 109.19 33.014C109.19 31.97 109.4 31.064 109.82 30.296C110.24 29.516 110.828 28.922 111.584 28.514C112.34 28.106 113.204 27.902 114.176 27.902C115.16 27.902 116.018 28.106 116.75 28.514C117.494 28.922 118.064 29.486 118.46 30.206C118.868 30.914 119.072 31.724 119.072 32.636ZM116.516 32.384C116.552 31.568 116.336 30.95 115.868 30.53C115.412 30.11 114.848 29.9 114.176 29.9C113.492 29.9 112.916 30.11 112.448 30.53C111.98 30.95 111.722 31.568 111.674 32.384H116.516ZM123.592 29.936C123.964 29.3 124.456 28.802 125.068 28.442C125.68 28.07 126.364 27.884 127.12 27.884V30.602H126.382C124.522 30.602 123.592 31.466 123.592 33.194V38H121.054V28.028H123.592V29.936ZM138.763 27.902C139.603 27.902 140.359 28.106 141.031 28.514C141.703 28.922 142.225 29.516 142.597 30.296C142.981 31.064 143.173 31.97 143.173 33.014C143.173 34.058 142.981 34.97 142.597 35.75C142.225 36.518 141.703 37.106 141.031 37.514C140.359 37.922 139.603 38.126 138.763 38.126C137.923 38.126 137.203 37.928 136.603 37.532C136.015 37.124 135.595 36.584 135.343 35.912V38H132.805V24.68H135.343V30.098C135.595 29.426 136.015 28.892 136.603 28.496C137.203 28.1 137.923 27.902 138.763 27.902ZM137.971 30.116C137.203 30.116 136.567 30.38 136.063 30.908C135.571 31.424 135.325 32.126 135.325 33.014C135.325 33.89 135.571 34.592 136.063 35.12C136.567 35.636 137.203 35.894 137.971 35.894C138.763 35.894 139.399 35.642 139.879 35.138C140.359 34.622 140.599 33.914 140.599 33.014C140.599 32.114 140.359 31.406 139.879 30.89C139.399 30.374 138.763 30.116 137.971 30.116ZM149.757 27.902C150.729 27.902 151.599 28.106 152.367 28.514C153.147 28.922 153.759 29.516 154.203 30.296C154.647 31.064 154.869 31.97 154.869 33.014C154.869 34.058 154.647 34.964 154.203 35.732C153.759 36.5 153.147 37.094 152.367 37.514C151.599 37.922 150.729 38.126 149.757 38.126C148.785 38.126 147.909 37.922 147.129 37.514C146.361 37.094 145.755 36.5 145.311 35.732C144.867 34.964 144.645 34.058 144.645 33.014C144.645 31.97 144.867 31.064 145.311 30.296C145.755 29.516 146.361 28.922 147.129 28.514C147.909 28.106 148.785 27.902 149.757 27.902ZM149.757 30.098C149.049 30.098 148.449 30.35 147.957 30.854C147.465 31.346 147.219 32.066 147.219 33.014C147.219 33.962 147.465 34.688 147.957 35.192C148.449 35.684 149.049 35.93 149.757 35.93C150.465 35.93 151.065 35.684 151.557 35.192C152.049 34.688 152.295 33.962 152.295 33.014C152.295 32.066 152.049 31.346 151.557 30.854C151.065 30.35 150.465 30.098 149.757 30.098ZM160.748 27.902C161.588 27.902 162.308 28.1 162.908 28.496C163.508 28.892 163.934 29.426 164.186 30.098V28.028H166.706V38H164.186V35.912C163.934 36.584 163.508 37.124 162.908 37.532C162.308 37.928 161.588 38.126 160.748 38.126C159.908 38.126 159.152 37.922 158.48 37.514C157.808 37.106 157.28 36.518 156.896 35.75C156.524 34.97 156.338 34.058 156.338 33.014C156.338 31.97 156.524 31.064 156.896 30.296C157.28 29.516 157.808 28.922 158.48 28.514C159.152 28.106 159.908 27.902 160.748 27.902ZM161.54 30.116C160.748 30.116 160.112 30.374 159.632 30.89C159.152 31.406 158.912 32.114 158.912 33.014C158.912 33.914 159.152 34.622 159.632 35.138C160.112 35.642 160.748 35.894 161.54 35.894C162.308 35.894 162.938 35.636 163.43 35.12C163.934 34.592 164.186 33.89 164.186 33.014C164.186 32.126 163.934 31.424 163.43 30.908C162.938 30.38 162.308 30.116 161.54 30.116ZM171.724 29.936C172.096 29.3 172.588 28.802 173.2 28.442C173.812 28.07 174.496 27.884 175.252 27.884V30.602H174.514C172.654 30.602 171.724 31.466 171.724 33.194V38H169.186V28.028H171.724V29.936ZM180.743 27.902C181.583 27.902 182.297 28.1 182.885 28.496C183.485 28.892 183.917 29.426 184.181 30.098V24.68H186.701V38H184.181V35.912C183.917 36.584 183.485 37.124 182.885 37.532C182.297 37.928 181.583 38.126 180.743 38.126C179.903 38.126 179.147 37.922 178.475 37.514C177.803 37.106 177.275 36.518 176.891 35.75C176.519 34.97 176.333 34.058 176.333 33.014C176.333 31.97 176.519 31.064 176.891 30.296C177.275 29.516 177.803 28.922 178.475 28.514C179.147 28.106 179.903 27.902 180.743 27.902ZM181.535 30.116C180.743 30.116 180.107 30.374 179.627 30.89C179.147 31.406 178.907 32.114 178.907 33.014C178.907 33.914 179.147 34.622 179.627 35.138C180.107 35.642 180.743 35.894 181.535 35.894C182.303 35.894 182.933 35.636 183.425 35.12C183.929 34.592 184.181 33.89 184.181 33.014C184.181 32.126 183.929 31.424 183.425 30.908C182.933 30.38 182.303 30.116 181.535 30.116Z" fill="white"/>
<line x1="45.25" y1="22.75" x2="25.75" y2="22.75" stroke="white" stroke-width="3.5" stroke-linecap="round"/>
<line x1="39.1974" y1="32.75" x2="25.75" y2="32.75" stroke="white" stroke-width="3.5" stroke-linecap="round"/>
<line x1="45.25" y1="42.75" x2="25.75" y2="42.75" stroke="white" stroke-width="3.5" stroke-linecap="round"/>
</svg>
