<svg width="369" height="422" viewBox="0 0 369 422" fill="none" xmlns="http://www.w3.org/2000/svg">
<rect width="369" height="422" rx="30" fill="#0D47A1"/>
<path d="M184 263C240.027 263 285.445 217.581 285.445 161.555C285.445 105.528 240.027 60.1094 184 60.1094C127.973 60.1094 82.5547 105.528 82.5547 161.555C82.5547 217.581 127.973 263 184 263Z" fill="#1A2B63"/>
<path d="M191.246 200.805V178.605C190.391 178.815 189.498 178.928 188.578 178.928H179.422C178.502 178.928 177.609 178.815 176.754 178.605V200.805H191.246Z" fill="#FFAF10"/>
<path d="M183.172 200.805V178.928H179.422C178.502 178.928 177.609 178.815 176.754 178.605V200.805H183.172Z" fill="#EF9614"/>
<path d="M184 169.009C178.45 169.009 173.135 167.987 168.23 166.127V168.168C168.23 174.349 173.241 179.359 179.422 179.359H188.578C194.759 179.359 199.77 174.349 199.77 168.168V166.127C194.864 167.987 189.55 169.009 184 169.009Z" fill="#FFD00D"/>
<path d="M181.058 168.91C176.57 168.616 172.262 167.656 168.23 166.127V168.168C168.23 174.349 173.241 179.359 179.422 179.359H188.579C189.199 179.359 189.808 179.307 190.401 179.209C185.325 178.378 181.4 174.134 181.058 168.91Z" fill="#FFAF10"/>
<path d="M200.148 209.172V202.133C200.148 200.994 199.217 200.062 198.078 200.062H169.922C168.783 200.062 167.852 200.994 167.852 202.133V209.172H200.148Z" fill="#EF8318"/>
<path d="M180.273 209.172V202.133C180.273 200.994 181.205 200.062 182.344 200.062H169.922C168.783 200.062 167.852 200.994 167.852 202.133V209.172H180.273Z" fill="#DB722C"/>
<path d="M223.129 244.367V210.414C223.129 209.275 222.197 208.344 221.059 208.344H146.941C145.803 208.344 144.871 209.275 144.871 210.414V244.367H223.129Z" fill="#A05F33"/>
<path d="M151.289 244.367V210.414C151.289 209.275 152.221 208.344 153.359 208.344H146.941C145.803 208.344 144.871 209.275 144.871 210.414V244.367H151.289Z" fill="#87502A"/>
<path d="M211.751 235.258C211.751 236.396 210.82 237.328 209.681 237.328H158.319C157.18 237.328 156.249 236.396 156.249 235.258V217.867C156.249 216.729 157.18 215.797 158.319 215.797H209.681C210.82 215.797 211.751 216.729 211.751 217.867V235.258Z" fill="#293D7C"/>
<path d="M164.52 235.258V217.867C164.52 216.729 165.452 215.797 166.591 215.797H158.319C157.18 215.797 156.249 216.729 156.249 217.867V235.258C156.249 236.396 157.18 237.328 158.319 237.328H166.591C165.452 237.328 164.52 236.396 164.52 235.258Z" fill="#1A2B63"/>
<path d="M231.824 243.953H136.176C135.037 243.953 134.105 244.885 134.105 246.023V249.896C148.839 258.235 165.862 263 184 263C202.138 263 219.161 258.235 233.895 249.895V246.023C233.895 244.885 232.963 243.953 231.824 243.953Z" fill="#BF7E52"/>
<path d="M146.734 246.023C146.734 244.885 147.666 243.953 148.805 243.953H136.176C135.037 243.953 134.105 244.885 134.105 246.023V249.896C138.15 252.185 142.369 254.203 146.734 255.929V246.023Z" fill="#AA6B3F"/>
<path d="M253.668 61.5963H237.621V65.0781C237.621 65.9916 236.878 66.7344 235.965 66.7344H229.016C228.787 66.7344 228.602 66.9199 228.602 67.1484V71.9478H250.307C249.421 90.085 241.221 106.332 228.602 117.798V124.407C228.602 126.812 228.408 129.172 228.04 131.475C247.8 117.578 260.739 94.6062 260.739 68.6672C260.739 64.768 257.567 61.5963 253.668 61.5963Z" fill="#FFAF10"/>
<path d="M139.398 124.407V117.798C126.779 106.332 118.579 90.085 117.693 71.9478H139.398V67.1484C139.398 66.9199 139.213 66.7344 138.984 66.7344H132.035C131.122 66.7344 130.379 65.9916 130.379 65.0781V61.5963H114.332C110.433 61.5963 107.261 64.7684 107.261 68.6672C107.261 94.6066 120.2 117.578 139.96 131.475C139.592 129.172 139.398 126.812 139.398 124.407Z" fill="#FFD00D"/>
<path d="M138.984 66.7344V124.407C138.984 149.269 159.139 169.423 184 169.423C208.862 169.423 229.017 149.269 229.017 124.407V66.7344H138.984Z" fill="#EF8318"/>
<path d="M147.977 124.407V66.3216H138.984V124.407C138.984 149.269 159.139 169.423 184 169.423C185.508 169.423 186.995 169.343 188.464 169.197C165.729 166.926 147.977 147.74 147.977 124.407Z" fill="#DB722C"/>
<path d="M184 146.027C200.922 146.027 214.641 132.309 214.641 115.387C214.641 98.4644 200.922 84.7461 184 84.7461C167.078 84.7461 153.359 98.4644 153.359 115.387C153.359 132.309 167.078 146.027 184 146.027Z" fill="#DB722C"/>
<path d="M161.227 115.386C161.227 99.7977 172.87 86.9377 187.934 85.0057C186.645 84.8405 185.334 84.7457 184 84.7457C167.078 84.7457 153.359 98.464 153.359 115.386C153.359 132.309 167.078 146.027 184 146.027C185.334 146.027 186.645 145.932 187.934 145.767C172.87 143.835 161.227 130.975 161.227 115.386Z" fill="#C95E23"/>
<path d="M194.665 134.516C194.158 134.516 193.64 134.379 193.126 134.108L184.783 129.722C184.658 129.656 184.377 129.579 184 129.579C183.624 129.579 183.343 129.656 183.216 129.722L174.875 134.108C174.36 134.379 173.842 134.516 173.336 134.516C172.567 134.516 171.88 134.202 171.4 133.633C170.868 133.003 170.666 132.127 170.83 131.169L172.424 121.88C172.494 121.473 172.236 120.679 171.94 120.39L165.191 113.812C164.313 112.955 163.994 111.893 164.318 110.899C164.641 109.904 165.522 109.233 166.736 109.057L176.062 107.702C176.471 107.642 177.147 107.151 177.33 106.78L181.5 98.3294C182.044 97.2293 182.954 96.5986 184 96.5986C185.046 96.5986 185.958 97.2293 186.5 98.3294L190.671 106.78C190.854 107.151 191.529 107.643 191.938 107.702L201.264 109.057C202.478 109.233 203.36 109.904 203.683 110.899C204.006 111.893 203.688 112.955 202.81 113.811L196.061 120.39C195.765 120.678 195.507 121.473 195.577 121.88L197.17 131.169C197.334 132.127 197.132 133.003 196.6 133.633C196.12 134.202 195.433 134.516 194.665 134.516Z" fill="#FFD00D"/>
<path d="M177.665 130.281L179.391 120.216C179.467 119.775 179.187 118.914 178.866 118.601L171.554 111.473C170.656 110.597 170.306 109.525 170.562 108.501L166.736 109.057C165.522 109.234 164.64 109.905 164.317 110.9C163.993 111.894 164.312 112.956 165.19 113.812L171.939 120.391C172.235 120.679 172.493 121.473 172.423 121.881L170.829 131.17C170.665 132.128 170.868 133.003 171.399 133.634C171.879 134.203 172.566 134.516 173.335 134.516C173.841 134.516 174.359 134.379 174.874 134.109L177.967 132.482C177.635 131.86 177.524 131.1 177.665 130.281Z" fill="#FFAF10"/>
<path d="M238.035 65.0781C238.035 66.2168 237.104 67.1484 235.965 67.1484H132.035C130.896 67.1484 129.965 66.2168 129.965 65.0781V53.0703C129.965 51.9316 130.896 51 132.035 51H235.965C237.104 51 238.035 51.9316 238.035 53.0703V65.0781Z" fill="#FFD00D"/>
<path d="M142.594 65.0781V53.0703C142.594 51.9316 143.525 51 144.664 51H132.035C130.896 51 129.965 51.9316 129.965 53.0703V65.0781C129.965 66.2168 130.896 67.1484 132.035 67.1484H144.664C143.525 67.1484 142.594 66.2168 142.594 65.0781Z" fill="#FFAF10"/>
<path d="M130.586 188.055C130.053 188.055 129.579 187.715 129.409 187.21C127.026 180.149 125.242 178.365 118.181 175.982C117.676 175.811 117.336 175.338 117.336 174.805C117.336 174.272 117.676 173.798 118.181 173.628C125.242 171.245 127.025 169.461 129.409 162.4C129.579 161.895 130.053 161.555 130.586 161.555C131.118 161.555 131.592 161.895 131.762 162.4C134.146 169.461 135.929 171.245 142.99 173.628C143.495 173.799 143.836 174.272 143.836 174.805C143.836 175.338 143.496 175.811 142.99 175.982C135.929 178.365 134.146 180.149 131.762 187.21C131.593 187.715 131.119 188.055 130.586 188.055Z" fill="#FFD00D"/>
<path d="M233.48 174.391C233.056 174.391 232.678 174.12 232.542 173.718C230.643 168.091 229.221 166.669 223.595 164.77C223.193 164.634 222.922 164.257 222.922 163.832C222.922 163.408 223.193 163.03 223.595 162.894C229.222 160.995 230.643 159.573 232.542 153.947C232.678 153.544 233.056 153.273 233.48 153.273C233.905 153.273 234.282 153.544 234.419 153.947C236.318 159.573 237.74 160.995 243.366 162.894C243.768 163.03 244.039 163.408 244.039 163.832C244.039 164.257 243.768 164.634 243.366 164.77C237.739 166.67 236.318 168.091 234.419 173.718C234.282 174.12 233.905 174.391 233.48 174.391Z" fill="white"/>
<path d="M195.18 224.492H172.82C171.677 224.492 170.75 223.565 170.75 222.422C170.75 221.279 171.677 220.352 172.82 220.352H195.18C196.323 220.352 197.25 221.279 197.25 222.422C197.25 223.565 196.323 224.492 195.18 224.492Z" fill="white"/>
<path d="M190.211 231.945H177.789C176.646 231.945 175.719 231.018 175.719 229.875C175.719 228.732 176.646 227.805 177.789 227.805H190.211C191.355 227.805 192.281 228.732 192.281 229.875C192.281 231.018 191.355 231.945 190.211 231.945Z" fill="white"/>
<path d="M158.742 84.125C158.343 84.125 157.987 83.8699 157.859 83.4915C156.072 78.1956 154.734 76.8578 149.438 75.0703C149.06 74.9423 148.805 74.5871 148.805 74.1875C148.805 73.7879 149.06 73.4327 149.438 73.3047C154.734 71.5176 156.072 70.1794 157.859 64.8835C157.987 64.5051 158.343 64.25 158.742 64.25C159.142 64.25 159.497 64.5051 159.625 64.8835C161.412 70.1794 162.75 71.5172 168.046 73.3047C168.425 73.4327 168.68 73.7879 168.68 74.1875C168.68 74.5871 168.425 74.9423 168.046 75.0703C162.75 76.8578 161.412 78.1956 159.625 83.4915C159.497 83.8699 159.142 84.125 158.742 84.125Z" fill="white"/>
<path d="M158.86 303.14C158.86 304.3 158.46 305.267 157.66 306.04C156.873 306.8 155.667 307.18 154.04 307.18H151.36V313H149.54V299.06H154.04C155.613 299.06 156.807 299.44 157.62 300.2C158.447 300.96 158.86 301.94 158.86 303.14ZM154.04 305.68C155.053 305.68 155.8 305.46 156.28 305.02C156.76 304.58 157 303.953 157 303.14C157 301.42 156.013 300.56 154.04 300.56H151.36V305.68H154.04ZM163.142 298.2V313H161.322V298.2H163.142ZM165.764 307.48C165.764 306.36 165.991 305.38 166.444 304.54C166.897 303.687 167.517 303.027 168.304 302.56C169.104 302.093 169.991 301.86 170.964 301.86C171.924 301.86 172.757 302.067 173.464 302.48C174.171 302.893 174.697 303.413 175.044 304.04V302.04H176.884V313H175.044V310.96C174.684 311.6 174.144 312.133 173.424 312.56C172.717 312.973 171.891 313.18 170.944 313.18C169.971 313.18 169.091 312.94 168.304 312.46C167.517 311.98 166.897 311.307 166.444 310.44C165.991 309.573 165.764 308.587 165.764 307.48ZM175.044 307.5C175.044 306.673 174.877 305.953 174.544 305.34C174.211 304.727 173.757 304.26 173.184 303.94C172.624 303.607 172.004 303.44 171.324 303.44C170.644 303.44 170.024 303.6 169.464 303.92C168.904 304.24 168.457 304.707 168.124 305.32C167.791 305.933 167.624 306.653 167.624 307.48C167.624 308.32 167.791 309.053 168.124 309.68C168.457 310.293 168.904 310.767 169.464 311.1C170.024 311.42 170.644 311.58 171.324 311.58C172.004 311.58 172.624 311.42 173.184 311.1C173.757 310.767 174.211 310.293 174.544 309.68C174.877 309.053 175.044 308.327 175.044 307.5ZM189.6 302.04L183 318.16H181.12L183.28 312.88L178.86 302.04H180.88L184.32 310.92L187.72 302.04H189.6ZM201.629 307.1C201.629 307.447 201.609 307.813 201.569 308.2H192.809C192.876 309.28 193.242 310.127 193.909 310.74C194.589 311.34 195.409 311.64 196.369 311.64C197.156 311.64 197.809 311.46 198.329 311.1C198.862 310.727 199.236 310.233 199.449 309.62H201.409C201.116 310.673 200.529 311.533 199.649 312.2C198.769 312.853 197.676 313.18 196.369 313.18C195.329 313.18 194.396 312.947 193.569 312.48C192.756 312.013 192.116 311.353 191.649 310.5C191.182 309.633 190.949 308.633 190.949 307.5C190.949 306.367 191.176 305.373 191.629 304.52C192.082 303.667 192.716 303.013 193.529 302.56C194.356 302.093 195.302 301.86 196.369 301.86C197.409 301.86 198.329 302.087 199.129 302.54C199.929 302.993 200.542 303.62 200.969 304.42C201.409 305.207 201.629 306.1 201.629 307.1ZM199.749 306.72C199.749 306.027 199.596 305.433 199.289 304.94C198.982 304.433 198.562 304.053 198.029 303.8C197.509 303.533 196.929 303.4 196.289 303.4C195.369 303.4 194.582 303.693 193.929 304.28C193.289 304.867 192.922 305.68 192.829 306.72H199.749ZM206.051 303.82C206.371 303.193 206.825 302.707 207.411 302.36C208.011 302.013 208.738 301.84 209.591 301.84V303.72H209.111C207.071 303.72 206.051 304.827 206.051 307.04V313H204.231V302.04H206.051V303.82ZM216.904 311.54C218.598 310.18 219.924 309.067 220.884 308.2C221.844 307.32 222.651 306.407 223.304 305.46C223.971 304.5 224.304 303.56 224.304 302.64C224.304 301.773 224.091 301.093 223.664 300.6C223.251 300.093 222.578 299.84 221.644 299.84C220.738 299.84 220.031 300.127 219.524 300.7C219.031 301.26 218.764 302.013 218.724 302.96H216.964C217.018 301.467 217.471 300.313 218.324 299.5C219.178 298.687 220.278 298.28 221.624 298.28C222.998 298.28 224.084 298.66 224.884 299.42C225.698 300.18 226.104 301.227 226.104 302.56C226.104 303.667 225.771 304.747 225.104 305.8C224.451 306.84 223.704 307.76 222.864 308.56C222.024 309.347 220.951 310.267 219.644 311.32H226.524V312.84H216.904V311.54Z" fill="white"/>
<path d="M172.8 332.72L166.04 361H157.56L153.04 342.08L148.48 361H140L133.24 332.72H140.68L144.32 353.2L149.28 332.72H156.76L161.72 353.2L165.4 332.72H172.8ZM190.231 332.28C192.898 332.28 195.311 332.907 197.471 334.16C199.658 335.387 201.378 337.107 202.631 339.32C203.885 341.507 204.511 343.987 204.511 346.76C204.511 349.533 203.871 352.027 202.591 354.24C201.338 356.453 199.618 358.187 197.431 359.44C195.271 360.667 192.871 361.28 190.231 361.28C187.591 361.28 185.178 360.667 182.991 359.44C180.831 358.187 179.111 356.453 177.831 354.24C176.578 352.027 175.951 349.533 175.951 346.76C175.951 343.987 176.578 341.507 177.831 339.32C179.111 337.107 180.831 335.387 182.991 334.16C185.178 332.907 187.591 332.28 190.231 332.28ZM190.231 338.64C187.991 338.64 186.205 339.373 184.871 340.84C183.565 342.28 182.911 344.253 182.911 346.76C182.911 349.24 183.565 351.213 184.871 352.68C186.205 354.147 187.991 354.88 190.231 354.88C192.445 354.88 194.218 354.147 195.551 352.68C196.885 351.213 197.551 349.24 197.551 346.76C197.551 344.28 196.885 342.307 195.551 340.84C194.245 339.373 192.471 338.64 190.231 338.64ZM233.874 361H227.034L215.594 343.64V361H208.754V332.72H215.594L227.034 350.24V332.72H233.874V361Z" fill="white"/>
</svg>
